<svg width="752" height="126" viewBox="0 0 752 126" fill="none" xmlns="http://www.w3.org/2000/svg">
<path d="M115.9 66.3871C115.903 68.9256 115.106 71.4042 113.617 73.4861C112.128 75.568 110.018 77.1531 107.574 78.0264L83.1529 86.6968C79.2946 88.083 75.1674 88.6105 71.0733 88.2405C66.9791 87.8705 63.0216 86.6123 59.4901 84.5584C52.1621 80.2493 45.2975 75.2315 39.0002 69.5811H103.254C104.275 69.5811 105.254 69.1858 105.975 68.4819C106.697 67.778 107.102 66.8235 107.102 65.828V65.828C107.101 64.9732 106.802 64.144 106.254 63.4768C105.706 62.8096 104.942 62.3438 104.087 62.1556L29.1576 45.9606C25.0366 45.0827 21.1764 43.2957 17.8732 40.737C14.57 38.1784 11.9115 34.9158 10.1016 31.1996C5.31538 21.2917 1.91767 10.8009 0 0.00917816L109.156 55.398C111.199 56.4575 112.907 58.0409 114.096 59.9775C115.284 61.9141 115.908 64.1301 115.9 66.3871V66.3871Z" fill="#27272A"/>
<path d="M124.734 41.7354C134.487 41.7354 142.394 34.024 142.394 24.5115C142.394 14.9991 134.487 7.2877 124.734 7.2877C114.981 7.2877 107.075 14.9991 107.075 24.5115C107.075 34.024 114.981 41.7354 124.734 41.7354Z" fill="#27272A"/>
<path d="M124.734 125.825C134.487 125.825 142.394 118.114 142.394 108.601C142.394 99.0888 134.487 91.3774 124.734 91.3774C114.981 91.3774 107.075 99.0888 107.075 108.601C107.075 118.114 114.981 125.825 124.734 125.825Z" fill="#27272A"/>
<path d="M142.394 65.8276C142.396 66.8239 142.804 67.7783 143.527 68.4819C144.25 69.1856 145.23 69.5807 146.251 69.5807H210.487C204.197 75.2359 197.335 80.2541 190.006 84.558C186.475 86.6119 182.517 87.8701 178.423 88.2401C174.329 88.6101 170.202 88.0826 166.344 86.6964L141.922 78.026C139.479 77.1516 137.37 75.5661 135.881 73.4844C134.392 71.4027 133.595 68.9249 133.597 66.3867V66.3867C133.595 64.1201 134.232 61.8969 135.438 59.9591C136.643 58.0213 138.371 56.4434 140.433 55.3977L249.533 -1.52588e-05C247.615 10.7932 244.22 21.2862 239.441 31.1992C237.629 34.9156 234.969 38.1785 231.664 40.7371C228.359 43.2956 224.498 45.0823 220.376 45.9602L145.447 62.1552C144.585 62.3362 143.812 62.7993 143.257 63.4672C142.702 64.135 142.397 64.9678 142.394 65.8276V65.8276Z" fill="#27272A"/>
<path d="M311.923 105.787H331.39V20.502H311.923V105.787Z" fill="#27272A"/>
<path d="M390.991 108.259C403.506 108.259 414.784 103.315 422.973 94.9715L410.458 82.3024C405.669 87.0919 399.18 90.0274 390.991 90.0274C376.468 90.0274 364.88 78.2854 364.88 62.8353C364.88 47.5397 376.468 35.7976 390.991 35.7976C399.643 35.7976 406.75 39.1966 411.54 44.6042L424.054 31.7806C415.866 23.1285 403.969 17.5665 390.991 17.5665C365.807 17.5665 345.413 37.8061 345.413 62.8353C345.413 88.0189 365.807 108.259 390.991 108.259Z" fill="#27272A"/>
<path d="M468.765 108.259C482.516 108.259 493.64 102.697 501.056 89.2549H501.674V105.941H520.523V20.502H501.674V37.4971H501.056C495.649 26.2185 483.907 18.03 468.765 18.03C444.509 18.03 426.587 38.1151 426.587 63.1443C426.587 88.1734 444.509 108.259 468.765 108.259ZM472.782 90.0274C457.487 90.0274 446.981 78.4399 446.981 63.1443C446.981 47.6942 457.487 36.2611 472.782 36.2611C488.233 36.2611 498.893 47.6942 498.893 63.1443C498.893 78.4399 488.233 90.0274 472.782 90.0274Z" fill="#27272A"/>
<path d="M541.411 105.941H560.878V38.5786H592.86V20.502H541.411V105.941Z" fill="#27272A"/>
<path d="M638.936 108.259C660.103 108.259 675.553 93.7355 675.553 72.7233V20.502H656.086V73.8048C656.086 83.8474 649.751 90.1819 638.936 90.1819C628.585 90.1819 621.478 84.4654 621.478 73.8048V20.502H602.319V72.7233C602.319 93.7355 617.77 108.259 638.936 108.259Z" fill="#27272A"/>
<path d="M719.903 108.259C737.207 108.259 751.421 96.053 751.421 80.9119C751.421 60.8267 735.662 56.9642 724.229 54.0287C716.504 52.0202 709.088 50.4752 709.088 44.1407C709.088 38.8876 714.341 35.7976 720.521 35.7976C726.547 35.7976 731.954 39.0421 731.954 44.7587L751.267 44.9132C751.267 29.7721 737.362 18.1845 720.521 18.1845C703.063 18.1845 689.775 29.6176 689.775 44.2952C689.775 59.8998 701.209 66.5433 717.277 70.5603C725.002 72.5688 732.572 74.1138 732.572 81.2209C732.572 86.7829 727.783 90.4909 720.212 90.4909C713.105 90.4909 707.543 86.4739 707.389 80.9119H688.076C688.076 95.8985 701.672 108.259 719.903 108.259Z" fill="#27272A"/>
</svg>
