<svg width="426" height="131" viewBox="0 0 426 131" fill="none" xmlns="http://www.w3.org/2000/svg">
<path d="M22.9895 61.2748C21.1562 58.1883 19.9027 56.5335 21.7203 53.9253C23.0356 52.038 26.7302 48.7 29.2826 48.5153C31.1225 48.3153 32.1625 49.4886 33.0558 50.7819C37.2156 56.8217 40.8555 63.1681 43.8553 69.8478C45.1869 73.3975 40.6933 76.1436 37.8023 77.9675C34.7224 80.234 32.6158 79.0474 30.9759 75.8209C28.456 70.9011 25.8027 66.0346 22.9895 61.2748Z" fill="url(#paint0_linear_13_812)"/>
<path d="M33.8024 20.1298C31.7061 15.9794 35.2011 14.2319 38.1089 12.2101C40.4436 10.5868 43.3203 8.98932 45.3753 12.1168C55.4149 27.3962 63.2946 43.7422 69.3743 60.9682C70.401 64.9096 64.9088 66.6571 61.7346 67.8879C59.1214 69.1812 57.0681 68.4479 55.9882 65.448C50.2951 49.502 42.9487 34.3826 33.8024 20.1298Z" fill="url(#paint1_linear_13_812)"/>
<path d="M98.9465 90.8203C96.4266 109.1 86.187 121.659 68.2277 127.272C50.4151 132.845 35.549 127.712 22.8695 114.673C13.7499 105.286 8.8301 93.1668 1.88371 82.3939C-1.24949 77.5408 4.2453 75.145 7.2435 73.1943C10.2367 71.4004 12.11 72.501 13.6566 74.9809C16.7098 79.874 19.723 84.7805 22.6162 89.767C25.5094 94.7668 28.376 99.7799 32.2825 104.073C40.5088 113.126 50.2551 117.486 62.6679 114.179C75.4407 110.779 82.5738 102.3 84.947 89.607C85.667 85.7005 85.7337 81.674 86.067 78.0074C84.7604 55.355 77.454 34.7292 68.521 14.57C65.0412 6.73034 65.7611 4.67709 73.5608 1.94387C76.054 1.06391 77.9606 1.38389 79.0673 3.89046C91.3601 31.5693 103.293 59.4482 98.9465 90.8203Z" fill="url(#paint2_linear_13_812)"/>
<path d="M98.9465 90.8203C96.4266 109.1 86.187 121.659 68.2277 127.272C50.4151 132.845 35.549 127.712 22.8695 114.673C13.7499 105.286 8.8301 93.1668 1.88371 82.3939C-1.24949 77.5408 4.2453 75.145 7.2435 73.1943C10.2367 71.4004 12.11 72.501 13.6566 74.9809C16.7098 79.874 19.723 84.7805 22.6162 89.767C25.5094 94.7668 28.376 99.7799 32.2825 104.073C40.5088 113.126 50.2551 117.486 62.6679 114.179C75.4407 110.779 82.5738 102.3 84.947 89.607C85.667 85.7005 85.7337 81.674 86.067 78.0074C84.7604 55.355 77.454 34.7292 68.521 14.57C65.0412 6.73034 65.7611 4.67709 73.5608 1.94387C76.054 1.06391 77.9606 1.38389 79.0673 3.89046C91.3601 31.5693 103.293 59.4482 98.9465 90.8203Z" fill="url(#paint3_linear_13_812)"/>
<path d="M61.7346 67.8879C59.1214 69.1812 57.0681 68.4479 55.9882 65.448C50.2951 49.502 42.9487 34.3826 33.8024 20.1298C31.7061 15.9794 35.2011 14.2319 38.1089 12.2101C40.4436 10.5868 43.3203 8.98932 45.3753 12.1168C55.4149 27.3962 63.2946 43.7422 69.3743 60.9682C70.401 64.9096 64.9088 66.6571 61.7346 67.8879Z" fill="url(#paint4_linear_13_812)"/>
<path d="M37.8023 77.9675C34.7224 80.234 32.6158 79.0474 30.9759 75.8209C28.456 70.9011 25.8027 66.0346 22.9895 61.2748C21.1562 58.1883 19.9027 56.5335 21.7203 53.9253C23.0356 52.038 26.7302 48.7 29.2826 48.5153C31.1225 48.3153 32.1625 49.4886 33.0558 50.7819C37.2156 56.8217 40.8555 63.1681 43.8553 69.8478C45.1869 73.3975 40.6933 76.1436 37.8023 77.9675Z" fill="url(#paint5_linear_13_812)"/>
<path d="M138.323 114.472C136.403 114.6 134.931 114.344 133.907 113.704C132.883 113.064 132.371 112.072 132.371 110.728C132.371 109.704 132.691 108.872 133.331 108.232C133.971 107.656 134.995 107.304 136.403 107.176L139.091 106.984C141.587 106.856 143.443 106.088 144.659 104.68C145.939 103.272 146.579 101.032 146.579 97.96V53.896C146.579 52.36 147.027 51.208 147.923 50.44C148.883 49.608 150.067 49.192 151.475 49.192C152.883 49.192 154.035 49.608 154.931 50.44C155.827 51.208 156.275 52.36 156.275 53.896V97.384C156.275 102.76 155.027 106.824 152.531 109.576C150.035 112.328 146.163 113.896 140.915 114.28L138.323 114.472ZM151.475 39.784C149.619 39.784 148.147 39.272 147.059 38.248C145.971 37.224 145.427 35.88 145.427 34.216C145.427 32.552 145.971 31.24 147.059 30.28C148.147 29.256 149.619 28.744 151.475 28.744C153.267 28.744 154.707 29.256 155.795 30.28C156.947 31.24 157.523 32.552 157.523 34.216C157.523 35.88 156.979 37.224 155.891 38.248C154.803 39.272 153.331 39.784 151.475 39.784ZM188.261 97.672C183.653 97.672 179.589 96.68 176.069 94.696C172.613 92.712 169.925 89.896 168.005 86.248C166.149 82.536 165.221 78.248 165.221 73.384C165.221 68.456 166.149 64.168 168.005 60.52C169.925 56.808 172.613 53.96 176.069 51.976C179.589 49.992 183.653 49 188.261 49C192.869 49 196.901 49.992 200.357 51.976C203.877 53.96 206.565 56.808 208.421 60.52C210.341 64.168 211.301 68.456 211.301 73.384C211.301 78.248 210.341 82.536 208.421 86.248C206.565 89.896 203.877 92.712 200.357 94.696C196.901 96.68 192.869 97.672 188.261 97.672ZM188.261 89.992C192.549 89.992 195.813 88.584 198.053 85.768C200.357 82.952 201.509 78.824 201.509 73.384C201.509 68.008 200.357 63.912 198.053 61.096C195.749 58.216 192.485 56.776 188.261 56.776C184.037 56.776 180.773 58.216 178.469 61.096C176.165 63.912 175.013 68.008 175.013 73.384C175.013 78.824 176.133 82.952 178.373 85.768C180.677 88.584 183.973 89.992 188.261 89.992ZM256.464 49.192C257.936 49.192 259.088 49.608 259.92 50.44C260.816 51.272 261.264 52.424 261.264 53.896V92.968C261.264 94.312 260.816 95.4 259.92 96.232C259.024 97.064 257.84 97.48 256.368 97.48C255.024 97.48 253.936 97.096 253.104 96.328C252.272 95.496 251.856 94.408 251.856 93.064V89.416C250.384 92.104 248.336 94.152 245.712 95.56C243.152 96.968 240.272 97.672 237.072 97.672C225.68 97.672 219.984 91.4 219.984 78.856V53.896C219.984 52.424 220.4 51.272 221.232 50.44C222.128 49.608 223.344 49.192 224.88 49.192C226.352 49.192 227.504 49.608 228.336 50.44C229.232 51.272 229.68 52.424 229.68 53.896V78.76C229.68 82.536 230.448 85.32 231.984 87.112C233.52 88.904 235.888 89.8 239.088 89.8C242.864 89.8 245.872 88.584 248.112 86.152C250.416 83.72 251.568 80.488 251.568 76.456V53.896C251.568 52.488 252.016 51.368 252.912 50.536C253.808 49.64 254.992 49.192 256.464 49.192ZM297.489 49.192C300.561 49 302.097 50.312 302.097 53.128C302.097 54.536 301.745 55.592 301.041 56.296C300.337 57 299.121 57.416 297.393 57.544L294.513 57.832C290.481 58.216 287.473 59.624 285.489 62.056C283.569 64.488 282.609 67.432 282.609 70.888V92.872C282.609 94.408 282.161 95.56 281.265 96.328C280.369 97.096 279.217 97.48 277.809 97.48C276.401 97.48 275.217 97.096 274.257 96.328C273.361 95.56 272.913 94.408 272.913 92.872V53.8C272.913 52.328 273.361 51.208 274.257 50.44C275.217 49.608 276.401 49.192 277.809 49.192C279.089 49.192 280.145 49.608 280.977 50.44C281.873 51.208 282.321 52.296 282.321 53.704V58.312C283.601 55.496 285.457 53.352 287.889 51.88C290.321 50.408 293.073 49.544 296.145 49.288L297.489 49.192ZM331.397 49C342.597 49 348.197 55.304 348.197 67.912V92.872C348.197 94.344 347.749 95.496 346.853 96.328C346.021 97.096 344.837 97.48 343.301 97.48C341.829 97.48 340.645 97.064 339.749 96.232C338.917 95.4 338.501 94.28 338.501 92.872V68.392C338.501 64.424 337.701 61.512 336.101 59.656C334.565 57.8 332.133 56.872 328.805 56.872C324.901 56.872 321.765 58.088 319.397 60.52C317.029 62.952 315.845 66.216 315.845 70.312V92.872C315.845 94.28 315.397 95.4 314.501 96.232C313.669 97.064 312.517 97.48 311.045 97.48C309.573 97.48 308.389 97.064 307.493 96.232C306.597 95.4 306.149 94.28 306.149 92.872V53.8C306.149 52.456 306.597 51.368 307.493 50.536C308.453 49.64 309.637 49.192 311.045 49.192C312.453 49.192 313.573 49.608 314.405 50.44C315.237 51.272 315.653 52.36 315.653 53.704V57.64C317.189 54.824 319.333 52.68 322.085 51.208C324.837 49.736 327.941 49 331.397 49ZM364.437 97.48C363.029 97.48 361.845 97.096 360.885 96.328C359.989 95.56 359.541 94.408 359.541 92.872V53.896C359.541 52.36 359.989 51.208 360.885 50.44C361.845 49.608 363.029 49.192 364.437 49.192C365.845 49.192 366.997 49.608 367.893 50.44C368.789 51.208 369.237 52.36 369.237 53.896V92.872C369.237 94.408 368.789 95.56 367.893 96.328C366.997 97.096 365.845 97.48 364.437 97.48ZM364.437 39.784C362.581 39.784 361.109 39.272 360.021 38.248C358.933 37.224 358.389 35.88 358.389 34.216C358.389 32.552 358.933 31.24 360.021 30.28C361.109 29.256 362.581 28.744 364.437 28.744C366.229 28.744 367.669 29.256 368.757 30.28C369.909 31.24 370.485 32.552 370.485 34.216C370.485 35.88 369.941 37.224 368.853 38.248C367.765 39.272 366.293 39.784 364.437 39.784ZM417.543 85.192C418.439 85.192 419.175 85.544 419.751 86.248C420.327 86.952 420.615 87.848 420.615 88.936C420.615 90.792 419.463 92.36 417.159 93.64C414.919 94.92 412.455 95.912 409.767 96.616C407.143 97.32 404.615 97.672 402.183 97.672C394.759 97.672 388.903 95.528 384.615 91.24C380.327 86.888 378.183 80.968 378.183 73.48C378.183 68.68 379.111 64.424 380.967 60.712C382.887 57 385.543 54.12 388.935 52.072C392.391 50.024 396.295 49 400.647 49C406.919 49 411.879 51.016 415.527 55.048C419.175 59.08 420.999 64.52 420.999 71.368C420.999 73.928 419.847 75.208 417.543 75.208H387.879C388.519 85.128 393.287 90.088 402.183 90.088C404.551 90.088 406.599 89.768 408.327 89.128C410.055 88.488 411.879 87.656 413.799 86.632C413.991 86.504 414.503 86.248 415.335 85.864C416.231 85.416 416.967 85.192 417.543 85.192ZM400.839 56.104C397.127 56.104 394.151 57.288 391.911 59.656C389.671 62.024 388.327 65.352 387.879 69.64H412.647C412.455 65.288 411.335 61.96 409.287 59.656C407.303 57.288 404.487 56.104 400.839 56.104Z" fill="#262626"/>
<defs>
<linearGradient id="paint0_linear_13_812" x1="0.948242" y1="1.5" x2="128.509" y2="86.9125" gradientUnits="userSpaceOnUse">
<stop offset="0.15" stop-color="#FCE6CF"/>
<stop offset="0.5" stop-color="#FBCFFC"/>
<stop offset="0.85" stop-color="#CCD5FF"/>
</linearGradient>
<linearGradient id="paint1_linear_13_812" x1="0.948242" y1="1.5" x2="128.509" y2="86.9125" gradientUnits="userSpaceOnUse">
<stop offset="0.15" stop-color="#FCE6CF"/>
<stop offset="0.5" stop-color="#FBCFFC"/>
<stop offset="0.85" stop-color="#CCD5FF"/>
</linearGradient>
<linearGradient id="paint2_linear_13_812" x1="0.948242" y1="1.5" x2="128.509" y2="86.9125" gradientUnits="userSpaceOnUse">
<stop offset="0.15" stop-color="#FCE6CF"/>
<stop offset="0.5" stop-color="#FBCFFC"/>
<stop offset="0.85" stop-color="#CCD5FF"/>
</linearGradient>
<linearGradient id="paint3_linear_13_812" x1="0.948242" y1="1.5" x2="128.509" y2="86.9125" gradientUnits="userSpaceOnUse">
<stop offset="0.15" stop-color="#FCE6CF"/>
<stop offset="0.5" stop-color="#FBCFFC"/>
<stop offset="0.85" stop-color="#CCD5FF"/>
</linearGradient>
<linearGradient id="paint4_linear_13_812" x1="0.948242" y1="1.5" x2="128.509" y2="86.9125" gradientUnits="userSpaceOnUse">
<stop offset="0.15" stop-color="#FCE6CF"/>
<stop offset="0.5" stop-color="#FBCFFC"/>
<stop offset="0.85" stop-color="#CCD5FF"/>
</linearGradient>
<linearGradient id="paint5_linear_13_812" x1="0.948242" y1="1.5" x2="128.509" y2="86.9125" gradientUnits="userSpaceOnUse">
<stop offset="0.15" stop-color="#FCE6CF"/>
<stop offset="0.5" stop-color="#FBCFFC"/>
<stop offset="0.85" stop-color="#CCD5FF"/>
</linearGradient>
</defs>
</svg>
