<svg width="199" height="257" viewBox="0 0 199 257" fill="none" xmlns="http://www.w3.org/2000/svg">
<path d="M45.0419 119.72C41.37 113.538 38.8594 110.224 42.4999 105C45.1341 101.22 52.534 94.5346 57.646 94.1647C61.3311 93.7641 63.414 96.114 65.2031 98.7043C73.5346 110.801 80.8247 123.512 86.833 136.89C89.4999 144 80.4999 149.5 74.7096 153.153C68.541 157.693 64.3219 155.316 61.0373 148.854C55.9904 139 50.6763 129.253 45.0419 119.72Z" fill="url(#paint0_linear_6_1102)"/>
<path d="M66.6985 37.3127C62.4999 29 69.4999 25.5 75.3238 21.4508C79.9999 18.1996 85.7614 15 89.8772 21.2639C109.985 51.8662 125.767 84.6048 137.944 119.106C140 127 129 130.5 122.643 132.965C117.409 135.555 113.296 134.087 111.133 128.078C99.7308 96.1407 85.0172 65.8589 66.6985 37.3127Z" fill="url(#paint1_linear_6_1102)"/>
<path d="M197.172 178.895C192.125 215.506 171.617 240.661 135.647 251.903C99.9712 263.065 70.1967 252.784 44.8015 226.668C26.5363 207.869 16.6827 183.595 2.77009 162.018C-3.50525 152.298 7.5 147.5 13.5049 143.593C19.4998 140 23.2517 142.204 26.3494 147.171C32.4645 156.972 38.4995 166.798 44.2942 176.786C50.0889 186.799 55.8301 196.84 63.6543 205.439C80.1304 223.57 99.6507 232.302 124.512 225.68C150.094 218.87 164.38 201.887 169.133 176.465C170.576 168.641 170.709 160.576 171.377 153.233C168.76 107.864 154.126 66.5531 136.235 26.1773C129.265 10.4756 130.707 6.36324 146.329 0.889006C151.322 -0.873431 155.141 -0.232545 157.357 4.78773C181.978 60.2244 205.878 116.062 197.172 178.895Z" fill="url(#paint2_linear_6_1102)"/>
<path d="M197.172 178.895C192.125 215.506 171.617 240.661 135.647 251.903C99.9712 263.065 70.1967 252.784 44.8015 226.668C26.5363 207.869 16.6827 183.595 2.77009 162.018C-3.50525 152.298 7.5 147.5 13.5049 143.593C19.4998 140 23.2517 142.204 26.3494 147.171C32.4645 156.972 38.4995 166.798 44.2942 176.786C50.0889 186.799 55.8301 196.84 63.6543 205.439C80.1304 223.57 99.6507 232.302 124.512 225.68C150.094 218.87 164.38 201.887 169.133 176.465C170.576 168.641 170.709 160.576 171.377 153.233C168.76 107.864 154.126 66.5531 136.235 26.1773C129.265 10.4756 130.707 6.36324 146.329 0.889006C151.322 -0.873431 155.141 -0.232545 157.357 4.78773C181.978 60.2244 205.878 116.062 197.172 178.895Z" fill="url(#paint3_linear_6_1102)"/>
<path d="M122.643 132.965C117.409 135.555 113.296 134.087 111.133 128.078C99.7308 96.1407 85.0172 65.8589 66.6985 37.3127C62.4999 29 69.4999 25.5 75.3238 21.4508C79.9999 18.1996 85.7614 15 89.8772 21.2639C109.985 51.8662 125.767 84.6048 137.944 119.106C140 127 129 130.5 122.643 132.965Z" fill="url(#paint4_linear_6_1102)"/>
<path d="M74.7096 153.153C68.541 157.693 64.3219 155.316 61.0373 148.854C55.9904 139 50.6763 129.253 45.0419 119.72C41.37 113.538 38.8594 110.224 42.4999 105C45.1341 101.22 52.534 94.5346 57.646 94.1647C61.3311 93.7641 63.414 96.114 65.2031 98.7043C73.5346 110.801 80.8247 123.512 86.833 136.89C89.4999 144 80.4999 149.5 74.7096 153.153Z" fill="url(#paint5_linear_6_1102)"/>
<defs>
<linearGradient id="paint0_linear_6_1102" x1="0.896484" y1="0" x2="256.381" y2="171.068" gradientUnits="userSpaceOnUse">
<stop offset="0.15" stop-color="#FCE6CF"/>
<stop offset="0.5" stop-color="#FBCFFC"/>
<stop offset="0.85" stop-color="#CCD5FF"/>
</linearGradient>
<linearGradient id="paint1_linear_6_1102" x1="0.896484" y1="0" x2="256.381" y2="171.068" gradientUnits="userSpaceOnUse">
<stop offset="0.15" stop-color="#FCE6CF"/>
<stop offset="0.5" stop-color="#FBCFFC"/>
<stop offset="0.85" stop-color="#CCD5FF"/>
</linearGradient>
<linearGradient id="paint2_linear_6_1102" x1="0.896484" y1="0" x2="256.381" y2="171.068" gradientUnits="userSpaceOnUse">
<stop offset="0.15" stop-color="#FCE6CF"/>
<stop offset="0.5" stop-color="#FBCFFC"/>
<stop offset="0.85" stop-color="#CCD5FF"/>
</linearGradient>
<linearGradient id="paint3_linear_6_1102" x1="0.896484" y1="0" x2="256.381" y2="171.068" gradientUnits="userSpaceOnUse">
<stop offset="0.15" stop-color="#FCE6CF"/>
<stop offset="0.5" stop-color="#FBCFFC"/>
<stop offset="0.85" stop-color="#CCD5FF"/>
</linearGradient>
<linearGradient id="paint4_linear_6_1102" x1="0.896484" y1="0" x2="256.381" y2="171.068" gradientUnits="userSpaceOnUse">
<stop offset="0.15" stop-color="#FCE6CF"/>
<stop offset="0.5" stop-color="#FBCFFC"/>
<stop offset="0.85" stop-color="#CCD5FF"/>
</linearGradient>
<linearGradient id="paint5_linear_6_1102" x1="0.896484" y1="0" x2="256.381" y2="171.068" gradientUnits="userSpaceOnUse">
<stop offset="0.15" stop-color="#FCE6CF"/>
<stop offset="0.5" stop-color="#FBCFFC"/>
<stop offset="0.85" stop-color="#CCD5FF"/>
</linearGradient>
</defs>
</svg>
